<svg xmlns="http://www.w3.org/2000/svg" width="316.228" height="316.228" viewBox="0 0 461 461"><mask id="a" fill="#fff"><path fill-rule="evenodd" d="M0 0h460.8v460.723H0z"/></mask><g fill="none" fill-rule="evenodd"><path fill="#000" d="M460.8 230.4c0 127.246-103.154 230.4-230.4 230.4S0 357.646 0 230.4 103.153 0 230.4 0c127.246 0 230.4 103.153 230.4 230.4" mask="url(#a)"/><g fill="#9ea1a2"><path d="M54.427 180.733c-1.08 3.86 1.542 5.992 5.89 7.208 4.377 1.224 7.725.76 8.803-3.099.87-3.114-.652-4.798-3.137-5.913l1.633-5.838c5.303 2.042 8.123 6.467 6.345 12.824-2.05 7.332-8.271 9.823-15.277 7.864-6.975-1.95-11.003-7.307-8.953-14.638 1.769-6.324 6.474-8.646 12.012-7.693l-1.632 5.838c-2.647-.284-4.823.366-5.684 3.447M57.937 157.412l17.543 7.63 4.273-9.82 4.54 1.974-6.69 15.381-22.086-9.606zM90.988 146.673c-3.753 6.235-7.965 6.963-13.103 3.87l-13.191-7.936 3.127-5.195 13.19 7.937c2.684 1.614 4.361 1.052 5.732-1.229 1.372-2.28 1.087-4.025-1.599-5.64l-13.189-7.94 3.126-5.193 13.19 7.936c5.138 3.092 6.47 7.155 2.717 13.39M98.198 126.525l2.76-3.356c1.6-1.952 1.946-3.325.203-4.759-1.743-1.432-3-.806-4.603 1.145L93.8 122.91zm-4.608-9.193c1.069-1.301 1.613-2.598.077-3.86-1.535-1.262-2.703-.477-3.771.823l-2.652 3.226 3.694 3.037zm4.518-3.217.053.043c1.943-1.674 4.611-2.27 7.397.02 3.954 3.25 3.414 7.035.25 10.886l-7.636 9.289L79.57 119.06l7.421-9.029c3.187-3.875 6.364-4.665 9.539-2.055 2.29 1.883 2.322 4.175 1.58 6.139M120.492 103.155l3.097-2.547c2.912-2.396 2.37-5.44-.41-8.823s-5.687-4.527-8.601-2.13l-3.095 2.547zm-16.84-10.926 8.25-6.784c5.177-4.258 11.038-3.497 15.96 2.487 4.921 5.985 4.778 11.643-.4 15.902l-8.508 6.997zM144.82 74.116l2.567 4.234-8.99 5.445 2.566 4.234 10.602-6.421 2.566 4.235-15.787 9.564-12.479-20.599 15.613-9.459 2.566 4.236-10.429 6.316 2.217 3.66zM174.424 62.3l1.755 4.631-9.04 3.428 3.152 8.316-5.67 2.15-8.54-22.525 16.76-6.351 1.755 4.63-11.088 4.203 1.874 4.947zM197.377 58.212c-.921-4.074-3.123-7.099-7.394-6.134-4.304.972-4.96 4.643-4.039 8.717.928 4.106 3.097 7.138 7.401 6.166 4.272-.965 4.96-4.642 4.032-8.75m-17.348 3.92c-1.596-7.065 1.406-13.198 8.863-14.882 7.392-1.67 12.803 2.563 14.399 9.627 1.604 7.096-1.463 13.244-8.855 14.914-7.459 1.686-12.803-2.564-14.407-9.659M224.899 55.195c-.267-4.17-1.965-7.505-6.336-7.226-4.405.282-5.631 3.804-5.365 7.973.269 4.203 1.933 7.54 6.339 7.258 4.37-.279 5.63-3.803 5.362-8.005m-17.753 1.134c-.462-7.23 3.469-12.814 11.1-13.302 7.566-.482 12.242 4.55 12.704 11.78.464 7.263-3.534 12.851-11.098 13.335-7.632.489-12.242-4.55-12.706-11.813M241.52 48.448l-6.986-.538.38-4.935 19.983 1.534-.38 4.936-6.952-.534-1.466 19.074-6.045-.465zM270.536 47.07l7.12 2.058.496 16.133.064.018 9.021-13.385 7.12 2.055-6.683 23.143-5.502-1.589 4.159-14.402-.064-.02-8.465 13.16-4.078-1.176-.144-15.647-.064-.019-4.16 14.403-5.503-1.589zM311.752 75.092c1.816-3.76 1.976-7.498-1.966-9.402-3.975-1.92-6.773.545-8.59 4.306-1.83 3.79-2.02 7.514 1.953 9.433 3.942 1.903 6.771-.545 8.603-4.337m-16.014-7.733c3.15-6.522 9.314-9.452 16.2-6.128 6.823 3.296 8.422 9.978 5.273 16.5-3.164 6.55-9.391 9.452-16.216 6.158-6.884-3.327-8.423-9.98-5.257-16.53M328.326 70.467l4.987 3.45-1.22 16.569.057.038 8.146-11.777 4.988 3.45-13.706 19.811-4.989-3.45 1.222-16.568-.055-.038-8.148 11.776-4.987-3.45zM351.7 94.32l-5.153-4.75 3.356-3.64 14.734 13.589-3.356 3.64-5.126-4.728-12.972 14.066-4.457-4.11zM364.25 115.328l2.62 3.17c1.545 1.87 3.036 2.298 4.595 1.01 1.558-1.286 1.416-2.83-.128-4.701l-2.616-3.17zm4.427-11.521 7.23 8.755c3.412 4.13 3.576 8.19.069 11.087-2.468 2.038-5.23 1.87-7.657-.013l-.053.044c3.035 5.315-5.555 9.57-4.985 10.892l-.261.215-4.01-4.858c.026-1.553 7.11-4.563 3.826-8.538l-2.403-2.91-6.468 5.344-3.86-4.676zM399.017 133.782l-5.834-.49-2.115-3.446 4.777-1.232zm-12.833 10.13-4.222 2.59-5.497-8.958-4.22 2.59 6.484 10.566-4.221 2.589-9.656-15.734 20.53-12.598 9.55 15.563-4.221 2.59-6.378-10.394-3.648 2.237zM390.177 164.497l7.084-6.03-.026-.062-9.248 1.019zm-6.973-4.512-5.223.567-2.403-5.567 25.571-1.536 2.404 5.568-18.67 17.526-2.402-5.568 3.993-3.411zM410.27 178.252l-18.431 5.143 2.877 10.319-4.77 1.33-4.507-16.16 23.201-6.473zM406.374 280.068c1.08-3.86-1.542-5.992-5.888-7.207-4.378-1.225-7.726-.761-8.805 3.1-.87 3.112.653 4.797 3.138 5.913l-1.632 5.837c-5.305-2.042-8.125-6.467-6.347-12.825 2.05-7.331 8.273-9.824 15.278-7.864 6.975 1.95 11.002 7.306 8.953 14.638-1.77 6.325-6.475 8.647-12.013 7.693l1.632-5.84c2.647.287 4.824-.364 5.684-3.445M402.865 303.388l-17.543-7.629-4.272 9.82-4.542-1.973 6.69-15.382 22.086 9.606zM369.814 314.129c3.753-6.235 7.964-6.964 13.102-3.871l13.192 7.936-3.128 5.195-13.191-7.937c-2.683-1.614-4.36-1.05-5.732 1.229s-1.085 4.026 1.599 5.64l13.19 7.94-3.126 5.194-13.19-7.938c-5.14-3.09-6.47-7.155-2.716-13.388M367.212 343.469c-1.07 1.302-1.613 2.598-.077 3.86 1.534 1.262 2.703.479 3.772-.823l2.652-3.225-3.695-3.04zm-4.607-9.193-2.76 3.356c-1.604 1.95-1.948 3.325-.203 4.758 1.742 1.432 2.997.809 4.6-1.143l2.76-3.356zm.088 12.41-.052-.043c-1.942 1.674-4.612 2.27-7.396-.019-3.955-3.25-3.415-7.036-.25-10.888l7.634-9.287 18.605 15.29-7.422 9.03c-3.187 3.875-6.364 4.665-9.538 2.057-2.29-1.882-2.323-4.177-1.58-6.14M340.31 357.645l-3.097 2.547c-2.913 2.396-2.371 5.441.411 8.824 2.78 3.383 5.686 4.528 8.6 2.13l3.094-2.547zm16.838 10.927-8.248 6.784c-5.178 4.259-11.039 3.497-15.96-2.487-4.92-5.985-4.779-11.643.399-15.901l8.508-7zM315.98 386.685l-2.564-4.235 8.988-5.444-2.564-4.234-10.602 6.42-2.567-4.234 15.788-9.564 12.479 20.599-15.615 9.458-2.564-4.234 10.427-6.318-2.216-3.659zM286.376 398.5l-1.755-4.63 9.042-3.428-3.153-8.316 5.67-2.15 8.54 22.524-16.76 6.352-1.755-4.63 11.088-4.203-1.874-4.947zM263.424 402.588c.92 4.076 3.122 7.099 7.393 6.135 4.304-.971 4.96-4.642 4.039-8.717-.927-4.106-3.097-7.138-7.401-6.165-4.272.963-4.96 4.64-4.031 8.747m17.348-3.917c1.595 7.063-1.406 13.197-8.864 14.882-7.392 1.67-12.803-2.564-14.398-9.629-1.603-7.096 1.462-13.242 8.855-14.914 7.458-1.685 12.803 2.564 14.407 9.661M235.903 405.606c.266 4.17 1.963 7.505 6.336 7.225 4.403-.28 5.63-3.803 5.363-7.972-.269-4.202-1.932-7.54-6.337-7.258-4.372.28-5.631 3.803-5.362 8.005m17.752-1.134c.462 7.23-3.469 12.814-11.101 13.302-7.565.483-12.241-4.552-12.703-11.78-.465-7.262 3.533-12.851 11.099-13.335 7.631-.489 12.242 4.55 12.705 11.813M219.28 412.353l6.984.537-.379 4.937-19.98-1.535.379-4.937 6.951.534 1.466-19.072 6.045.464zM190.264 413.73l-7.12-2.056-.496-16.132-.064-.02-9.021 13.386-7.12-2.056 6.683-23.144 5.502 1.59-4.159 14.404.064.018 8.465-13.16 4.078 1.178.144 15.646.066.018L191.444 389l5.503 1.588zM149.05 385.708c-1.815 3.76-1.975 7.498 1.967 9.404 3.973 1.918 6.771-.546 8.589-4.306 1.831-3.792 2.02-7.516-1.954-9.434-3.94-1.904-6.77.545-8.601 4.336m16.014 7.733c-3.15 6.523-9.316 9.454-16.201 6.128-6.824-3.295-8.422-9.977-5.274-16.498 3.165-6.551 9.393-9.453 16.217-6.157 6.885 3.325 8.422 9.978 5.258 16.527M132.475 390.333l-4.986-3.45 1.219-16.566-.055-.04-8.147 11.777-4.987-3.452 13.705-19.809 4.988 3.45-1.22 16.567.055.04 8.147-11.777 4.986 3.451zM109.103 366.48l5.152 4.75-3.357 3.641-14.734-13.588 3.357-3.64 5.125 4.728 12.972-14.066 4.458 4.11zM96.55 345.473l-2.618-3.169c-1.545-1.87-3.037-2.299-4.596-1.011-1.557 1.286-1.417 2.831.128 4.703l2.617 3.168zm-4.426 11.52-7.23-8.754c-3.412-4.13-3.576-8.19-.07-11.087 2.47-2.038 5.23-1.87 7.659.012l.05-.043c-3.034-5.314 5.557-9.57 4.988-10.893l.26-.213 4.012 4.857c-.028 1.553-7.111 4.564-3.828 8.538l2.402 2.91 6.468-5.343 3.862 4.675zM74.625 316.897l4.218-2.59 5.497 8.953 4.218-2.59-6.483-10.56 4.219-2.59 9.655 15.725-20.519 12.599-9.55-15.553 4.22-2.591 6.377 10.388 3.646-2.238zm-12.828 10.129 5.833.489 2.113 3.444-4.775 1.232zM70.623 296.303l-7.084 6.03.027.063 9.247-1.02zm6.974 4.514 5.223-.569 2.404 5.568-25.573 1.535-2.403-5.567 18.67-17.525 2.403 5.568-3.994 3.41zM50.53 282.55l18.433-5.142-2.88-10.32 4.77-1.33 4.51 16.16-23.202 6.472zM190.282 130.55v-.002zM414.83 226.993c-.457 0-.89.087-1.286.245-3.01 1.091-5.006 4.706-5.12 10.05h-1.58c0-4.894.827-6.436 3.05-12.571 1.127-2.861.45-6.436-1.546-9.749-.714-1.166-1.616-2.258-2.634-3.387-1.015 1.13-1.918 2.221-2.634 3.387-1.993 3.275-2.672 6.85-1.544 9.749 2.184 6.135 3.05 7.677 3.05 12.57h-1.582c-.075-5.382-2.107-8.958-5.116-10.049a3.6 3.6 0 0 0-1.304-.245c-1.061 0-2.222.468-3.327 1.6-1.957 1.995-2.522 7.527 3.199 8.58-.64-.902-.565-2.897.64-3.574a2.66 2.66 0 0 1 1.181-.277c.519 0 .986.151 1.265.39.79.49 1.545 1.995 1.545 3.539h-2.713v3.046h5.648c-.076 1.545-.942 2.824-2.523 3.5.22.66 1.116 1.925 2.376 1.925q.055 0 .108-.004c.263 1.43.526 2.22 1.694 3.5 1.204-1.28 1.43-2.07 1.695-3.5q.051.004.104.004c1.264 0 2.196-1.302 2.379-1.924-1.581-.677-2.446-1.956-2.522-3.501h5.646v-3.046h-2.71c0-1.544.752-3.05 1.543-3.54.288-.221.754-.376 1.284-.376.372 0 .774.077 1.163.264 1.203.715 1.24 2.672.64 3.575h.073c5.722-1.054 5.159-6.586 3.2-8.581-1.106-1.132-2.283-1.6-3.342-1.6M64.2 226.993c-.456 0-.891.087-1.287.245-3.01 1.091-5.005 4.704-5.117 10.048h-1.58c0-4.89.827-6.434 3.048-12.568 1.128-2.862.452-6.436-1.544-9.748-.714-1.166-1.618-2.258-2.634-3.386-1.016 1.128-1.919 2.22-2.635 3.386-1.993 3.274-2.67 6.849-1.542 9.748 2.182 6.134 3.048 7.678 3.048 12.568h-1.58c-.076-5.38-2.108-8.957-5.12-10.048a3.6 3.6 0 0 0-1.301-.245c-1.061 0-2.222.47-3.327 1.6-1.957 1.995-2.521 7.526 3.199 8.58-.64-.903-.565-2.897.64-3.574a2.66 2.66 0 0 1 1.181-.277c.517 0 .985.151 1.265.39.791.488 1.544 1.995 1.544 3.537h-2.71v3.047h5.645c-.076 1.545-.942 2.825-2.52 3.5.217.66 1.114 1.923 2.374 1.923q.054 0 .109-.003c.262 1.429.526 2.22 1.692 3.5 1.205-1.28 1.43-2.071 1.694-3.5q.053.004.105.003c1.264 0 2.196-1.3 2.379-1.923-1.581-.675-2.446-1.955-2.52-3.5h5.643v-3.047h-2.71c0-1.542.753-3.049 1.542-3.538.288-.221.757-.376 1.286-.376a2.7 2.7 0 0 1 1.162.264c1.203.715 1.241 2.671.64 3.575h.075c5.72-1.055 5.155-6.586 3.198-8.581-1.105-1.13-2.284-1.6-3.342-1.6"/></g><path fill="#0033a1" d="M230.4 21.567c-115.15 0-208.832 93.682-208.832 208.832 0 115.151 93.682 208.832 208.832 208.832 115.151 0 208.832-93.68 208.832-208.832 0-115.15-93.68-208.832-208.832-208.832m0 429.501c-121.678 0-220.67-98.991-220.67-220.67C9.73 108.723 108.723 9.732 230.4 9.732c121.68 0 220.668 98.99 220.668 220.668S352.08 451.069 230.4 451.069"/><path fill="#9ea1a2" d="m206.152 158.05 24.248 24.246 24.344-24.344v38.182l19.67-19.668v-62.413l-44.014 44.38-44.013-43.753v61.786l19.765 19.766z"/><path fill="#9ea1a2" d="m264.612 107.507-9.897-9.894-17.316 17.316V86.756h-13.997v28.173l-17.317-17.316-9.896 9.894L230.4 141.72zM334.847 300.468v-13.994h-48.38v48.38h13.994v-24.487l26.721 26.722 9.897-9.898-26.72-26.723zM150.444 160.348h-24.49v13.994h48.38v-48.38H160.34v24.487l-26.808-26.806-9.893 9.897 26.087 26.088zM334.85 160.264h-24.491l26.721-26.724-9.895-9.896-26.723 26.721v-24.487h-13.994v48.38h48.381zM125.956 300.385h24.486l-26.806 26.807 9.897 9.896 26.087-26.089.72-.718v24.489h13.996v-48.382h-48.38zM254.648 302.75l-24.247-24.248-24.262 24.262V264.58l-19.752 19.752v62.414l44.014-44.382 44.013 43.755v-61.787l-19.766-19.766z"/><path fill="#9ea1a2" d="m196.19 353.293 9.895 9.893 17.317-17.315v28.173H237.4v-28.173l17.316 17.315 9.897-9.893-34.21-34.212zM346.12 186.386h-61.786l-19.766 19.766h38.181l-24.247 24.247 23.865 23.863h-38.183l20.15 20.152h62.413l-44.38-44.015z"/><path fill="#9ea1a2" d="M374.045 223.401h-28.172l17.314-17.315-9.893-9.898-34.213 34.21 34.213 34.213 9.893-9.897-17.314-17.315h28.172zM158.05 254.648l24.248-24.247-23.863-23.863h38.182l-20.15-20.152h-62.414l44.382 44.015-43.755 44.013h61.787l19.766-19.766z"/><path fill="#9ea1a2" d="m107.508 196.188-9.894 9.897 17.315 17.316H86.756v13.998h28.173l-17.315 17.315 9.894 9.897 34.212-34.21z"/></g></svg>