<svg xmlns="http://www.w3.org/2000/svg" xmlns:xlink="http://www.w3.org/1999/xlink" viewBox="0 0 249.77 252">
  <defs>
    <style>
      .a{fill:#071c2c}.am{fill:#3e8ede}
    </style>
    <linearGradient id="a" x1="111.65" y1="8946.49" x2="205.52" y2="8852.62" gradientTransform="translate(0 -8747.4)" gradientUnits="userSpaceOnUse">
      <stop offset=".07" stop-color="#bea367"/>
      <stop offset=".43" stop-color="#f0e5bf"/>
      <stop offset=".62" stop-color="#f0e5bf"/>
      <stop offset="1" stop-color="#bea367"/>
    </linearGradient>
    <linearGradient id="b" x1="144.75" y1="8979.61" x2="238.63" y2="8885.73" xlink:href="#a"/>
    <linearGradient id="c" x1="156.69" y1="8991.55" x2="250.56" y2="8897.67" xlink:href="#a"/>
    <linearGradient id="d" x1="131.97" y1="8966.81" x2="225.84" y2="8872.94" xlink:href="#a"/>
    <linearGradient id="e" x1="88.99" y1="8923.84" x2="182.87" y2="8829.98" xlink:href="#a"/>
    <linearGradient id="f" x1="98.23" y1="8933.07" x2="192.1" y2="8839.21" gradientTransform="translate(-43.12 -8790.9)" xlink:href="#a"/>
    <linearGradient id="g" x1="106.22" y1="8941.07" x2="200.09" y2="8847.19" gradientTransform="translate(-43.12 -8790.9)" xlink:href="#a"/>
    <linearGradient id="h" x1="114.91" y1="8949.76" x2="208.79" y2="8855.89" xlink:href="#a"/>
    <linearGradient id="i" x1="125.98" y1="8960.82" x2="219.85" y2="8866.95" gradientTransform="translate(-43.12 -8790.9)" xlink:href="#a"/>
    <linearGradient id="j" x1="80.5" y1="9004.4" x2="256.99" y2="8827.91" gradientTransform="translate(0 -8747.4)" gradientUnits="userSpaceOnUse">
      <stop offset=".07" stop-color="#bea367"/>
      <stop offset=".27" stop-color="#f0e5bf"/>
      <stop offset=".46" stop-color="#bea367"/>
      <stop offset=".56" stop-color="#dac898"/>
      <stop offset=".66" stop-color="#f0e5bf"/>
      <stop offset=".96" stop-color="#bea367"/>
    </linearGradient>
    <linearGradient id="k" x1="20.54" y1="8944.43" x2="197.02" y2="8767.94" xlink:href="#j"/>
    <linearGradient id="l" x1="11.24" y1="8935.13" x2="187.73" y2="8758.65" xlink:href="#j"/>
    <linearGradient id="m" x1="7.99" y1="8931.88" x2="184.47" y2="8755.39" xlink:href="#j"/>
    <linearGradient id="n" x1="8.41" y1="8932.31" x2="184.9" y2="8755.83" xlink:href="#j"/>
    <linearGradient id="o" x1="14.04" y1="8937.94" x2="190.53" y2="8761.46" xlink:href="#j"/>
    <linearGradient id="p" x1="22.08" y1="8945.98" x2="198.57" y2="8769.49" xlink:href="#j"/>
    <linearGradient id="q" x1="37.03" y1="8960.93" x2="213.52" y2="8784.45" xlink:href="#j"/>
    <linearGradient id="r" x1="52.52" y1="8976.41" x2="229" y2="8799.92" xlink:href="#j"/>
    <linearGradient id="s" x1="69.17" y1="8993.07" x2="245.66" y2="8816.58" xlink:href="#j"/>
    <linearGradient id="t" x1="89.64" y1="9013.54" x2="266.13" y2="8837.06" xlink:href="#j"/>
    <linearGradient id="u" x1="106.23" y1="9030.14" x2="282.72" y2="8853.65" xlink:href="#j"/>
    <linearGradient id="v" x1="118.05" y1="9041.94" x2="294.53" y2="8865.44" xlink:href="#j"/>
    <linearGradient id="w" x1="80.51" y1="9004.41" x2="256.99" y2="8827.92" xlink:href="#j"/>
    <linearGradient id="x" x1="35.31" y1="8959.2" x2="211.8" y2="8782.71" gradientTransform="translate(-43.12 -8790.9)" xlink:href="#j"/>
    <linearGradient id="y" x1="50.88" y1="8974.78" x2="227.36" y2="8798.29" gradientTransform="translate(-43.12 -8790.9)" xlink:href="#j"/>
    <linearGradient id="z" x1="67.71" y1="8991.62" x2="244.21" y2="8815.13" gradientTransform="translate(-43.12 -8790.9)" xlink:href="#j"/>
    <linearGradient id="aa" x1="84.92" y1="9008.82" x2="261.41" y2="8832.33" gradientTransform="translate(-43.12 -8790.9)" xlink:href="#j"/>
    <linearGradient id="ab" x1="101.87" y1="9025.77" x2="278.36" y2="8849.28" gradientTransform="translate(-43.12 -8790.9)" xlink:href="#j"/>
    <linearGradient id="ac" x1="118.45" y1="9042.35" x2="294.94" y2="8865.86" gradientTransform="translate(-43.12 -8790.9)" xlink:href="#j"/>
    <linearGradient id="ad" x1="132.78" y1="9056.67" x2="309.27" y2="8880.19" gradientTransform="translate(-43.12 -8790.9)" xlink:href="#j"/>
    <linearGradient id="ae" x1="143.75" y1="9067.64" x2="320.23" y2="8891.15" gradientTransform="translate(-43.12 -8790.9)" xlink:href="#j"/>
    <linearGradient id="af" x1="150.49" y1="9074.38" x2="326.98" y2="8897.9" gradientTransform="translate(-43.12 -8790.9)" xlink:href="#j"/>
    <linearGradient id="ag" x1="153.09" y1="9076.99" x2="329.58" y2="8900.5" gradientTransform="translate(-43.12 -8790.9)" xlink:href="#j"/>
    <linearGradient id="ah" x1="152.16" y1="9076.06" x2="328.65" y2="8899.57" gradientTransform="translate(-43.12 -8790.9)" xlink:href="#j"/>
    <linearGradient id="ai" x1="147.22" y1="9071.12" x2="323.7" y2="8894.63" gradientTransform="translate(-43.12 -8790.9)" xlink:href="#j"/>
    <linearGradient id="aj" x1="138.15" y1="9062.05" x2="314.64" y2="8885.56" gradientTransform="translate(-43.12 -8790.9)" xlink:href="#j"/>
    <linearGradient id="ak" x1="176.02" y1="9099.92" x2="352.51" y2="8923.43" xlink:href="#j"/>
  </defs>
  <title>
    MLS_Philly_Union
  </title>
  <path class="a" d="M84 32.63l3.2-1.34-1.56-1.93c-.1-.15-.19-.3-.3-.45l-.38-.41c-.15-.15-.3-.37-.45-.52l-.37-.52-.22-.3c-.07-.07-.15-.22-.22-.3l.18 2.43zM188.44 45.27a5.78 5.78 0 0 0 1.93-1.86 7.29 7.29 0 0 0 1.64-3.2 2 2 0 0 0-1-1.71 2.77 2.77 0 0 0-1.64-.74 1.2 1.2 0 0 0-.67.22 3 3 0 0 0-.74.89l-3.42 4.53c.82.59 2 1.34 2.23 1.49a2 2 0 0 0 1.67.38zM223.38 102.81l.74 3.42 2.16-1.19a1.09 1.09 0 0 1 .3-.15c.07-.07.15-.07.22-.15l.52-.3c.22-.07.37-.22.59-.3l.52-.3a.57.57 0 0 1 .3-.15l.3-.15-2.38-.3zM110.88 28.02a3.08 3.08 0 0 1 .07.74c0 .15.07.3.07.45a.56.56 0 0 0 .15.3l.22.22a1.32 1.32 0 0 0 .74.3 7.21 7.21 0 0 0 1.26-.07 6.69 6.69 0 0 0 2.08-.59 2.79 2.79 0 0 0 1.19-1.26 5.33 5.33 0 0 0 .45-2.16 16.08 16.08 0 0 0-.15-3.27 13.83 13.83 0 0 0-.59-3 5.26 5.26 0 0 0-1-1.93 2.39 2.39 0 0 0-1.49-.95 6.53 6.53 0 0 0-2.08-.07 5.63 5.63 0 0 0-1.19.22 1.2 1.2 0 0 0-.67.37.91.91 0 0 0-.22.67 4.91 4.91 0 0 0 .07 1z"/>
  <path class="a" d="M124.88 4.91C58.72 4.91 4.83 59.25 4.83 126s53.89 121.17 120.05 121.17 120.05-54.34 120.05-121.09S191.04 4.91 124.88 4.91zm97.31 74.34c.22-.07.37-.22.59-.3a.58.58 0 0 0 .3-.3c.07-.07.15-.22.22-.3a1.28 1.28 0 0 0 .15-.89 6.28 6.28 0 0 0-.37-1.26l1.71-.74 4.16 9.37-1.71.74a7.37 7.37 0 0 0-.82-1.26 1.57 1.57 0 0 0-1-.37h-.37c-.15 0-.22.07-.37.07l-.52.22a7.24 7.24 0 0 0-.82.37l-7.88 3.57-1 .45c-.22.07-.37.22-.59.3a1.31 1.31 0 0 0-.37.3c-.07.07-.15.22-.22.3a1.28 1.28 0 0 0-.15.89 4.51 4.51 0 0 0 .37 1.34l-1.62.75-4.16-9.37 1.71-.74a7.37 7.37 0 0 0 .82 1.26 1.57 1.57 0 0 0 1 .37h.37c.15 0 .22-.07.37-.07l.52-.22a7.24 7.24 0 0 0 .82-.37l7.88-3.57zm-24.38-19.92l6.84-5.28a7.9 7.9 0 0 0 .82-.67c.15-.15.37-.3.52-.45a1.62 1.62 0 0 0 .22-.37c.07-.15.07-.22.15-.37a1.81 1.81 0 0 0 0-.89 3.77 3.77 0 0 0-.67-1.19l1.49-1.19 4.68 6.1-5.58 4.31 3.42 4.46 5.58-4.31 4.61 6.1-1.49 1.19a5 5 0 0 0-1.12-1 1.64 1.64 0 0 0-1-.15l-.3.07c-.15.07-.22.07-.37.15l-.45.37c-.22.15-.45.3-.74.52l-6.84 5.28-.82.67-.45.45a1.62 1.62 0 0 0-.3.37.79.79 0 0 0-.15.37 1.81 1.81 0 0 0 0 .89 6.15 6.15 0 0 0 .67 1.19l-1.49 1.19-4.68-6.1 6.76-5.2-3.42-4.46-6.82 5.12-4.61-6.1 1.49-1.19a5 5 0 0 0 1.12 1 1.64 1.64 0 0 0 1 .15c.07 0 .22-.07.3-.07a1.26 1.26 0 0 0 .37-.15l.45-.37a1.49 1.49 0 0 0 .8-.45zm-23.2-15.4a3.78 3.78 0 0 0 1.34.67 1.71 1.71 0 0 0 1-.15l.3-.15c.07-.07.22-.15.3-.22l.37-.45c.15-.15.3-.45.59-.74l5.2-7c.22-.37.45-.59.59-.82a4.15 4.15 0 0 0 .37-.59 1.06 1.06 0 0 0 .15-.45.67.67 0 0 1 .07-.37 2 2 0 0 0-.22-.89 11.43 11.43 0 0 0-.89-1l1.12-1.49 4.98 3.77a20 20 0 0 0 1.71 1.26c.52.37 1 .67 1.56 1.12l.89.67.74.52c1.56 1.19 2.38 2.45 2.38 3.79a8.86 8.86 0 0 1-2.08 4.91c-1.41 1.93-2.75 2.9-4.09 3.2a5.52 5.52 0 0 1-4.46-1.34 13.18 13.18 0 0 1-3-3l-.67 1c-.22.37-.45.59-.59.82a3.15 3.15 0 0 1-.37.52 1.06 1.06 0 0 0-.15.45v.37a1.49 1.49 0 0 0 .22.82 5 5 0 0 0 1.12 1l-1.21 1.43-8.25-6.24zm-20.67-9.52a4.85 4.85 0 0 0 1.49.37 1.57 1.57 0 0 0 1-.37l.22-.22c.07-.07.15-.22.22-.3l.22-.52a7.25 7.25 0 0 1 .37-.82l3.27-8c.15-.37.3-.74.37-1l.22-.67c0-.15.07-.3.07-.45a.67.67 0 0 0-.07-.37 1.26 1.26 0 0 0-.45-.74 4.46 4.46 0 0 0-1.12-.67l.74-1.78 9.39 3.95-.74 1.78a4.85 4.85 0 0 0-1.49-.37 1.57 1.57 0 0 0-1 .37l-.22.22c-.07.07-.15.22-.22.3a3.63 3.63 0 0 0-.22.52 7.25 7.25 0 0 1-.37.82l-3.42 8.25a5.12 5.12 0 0 0-.3.74c-.07.15-.07.3-.15.45v.3c0 .07.07.15.07.22l.22.22c.07.07.22.15.3.22a1.26 1.26 0 0 0 .45.22l.74.42.3.15c.37.15.67.3.89.37a2.3 2.3 0 0 0 .59.15h.45a1.06 1.06 0 0 0 .45-.15 2.23 2.23 0 0 0 1-.67 6.08 6.08 0 0 0 .89-1.49l2.16.89-2.23 5.65-14.83-6.2zm-23-4.39a5 5 0 0 0 1.49 0 1.15 1.15 0 0 0 .82-.59.56.56 0 0 0 .15-.3c.07-.15.07-.22.15-.37a1.45 1.45 0 0 0 .07-.59 5.49 5.49 0 0 1 .15-.89l1.26-8.62c.07-.37.07-.74.15-1a2.29 2.29 0 0 0 .07-.67.94.94 0 0 0-.07-.45.79.79 0 0 0-.15-.37 1.49 1.49 0 0 0-.67-.67 8.12 8.12 0 0 0-1.26-.37l.3-1.86 12.12 1.86 1.19.15a3.33 3.33 0 0 0 .82.07h.74c.3 0 .52-.07.82-.07l-.89 6.1-2.3-.37a5 5 0 0 0-.07-1.49 2 2 0 0 0-.45-1 1.49 1.49 0 0 0-.89-.59 8.7 8.7 0 0 0-1.49-.37l-.43-.06a5.63 5.63 0 0 0-1.12-.07 1.11 1.11 0 0 0-.67.15 1.09 1.09 0 0 0-.37.45 3.72 3.72 0 0 0-.15.89l-.45 3.2 3.94.59a4.24 4.24 0 0 0 1 .07h.82l-.52 3.27-.74-.22a8.62 8.62 0 0 0-1.19-.22l-3.79-.59-.52 3.35a4.91 4.91 0 0 0-.07 1 .85.85 0 0 0 .22.59 2 2 0 0 0 .67.37c.3.07.74.15 1.26.22l.67.07a10.07 10.07 0 0 0 1.49.15 1.57 1.57 0 0 0 1-.37 2 2 0 0 0 .67-.89 10.53 10.53 0 0 0 .52-1.64l2.3.37-.89 6-16.06-2.45zm-23.9-15.45l2.9-.37c.82-.07 1.41-.22 1.93-.3s.89-.15 1.26-.22l1-.15a8.53 8.53 0 0 1 3.87.22 5.06 5.06 0 0 1 2.53 1.93 10.89 10.89 0 0 1 1.35 2.82 20.7 20.7 0 0 1 .82 3.72c.37 3.12 0 5.5-1.12 7.21a7.22 7.22 0 0 1-5.58 3l-.74.07c-.3 0-.59.07-1 .07-.67.07-1.34.07-1.93.15l-1.78.22-6.62.74-.22-1.86a4.46 4.46 0 0 0 1.41-.45 1.15 1.15 0 0 0 .59-.82.56.56 0 0 0 .07-.3v-.29a1.85 1.85 0 0 0-.07-.59 3.06 3.06 0 0 1-.07-.89l-1-8.55c-.07-.45-.07-.74-.15-1a2.17 2.17 0 0 0-.15-.67 1.91 1.91 0 0 0-.15-.37c-.07-.07-.15-.22-.22-.3a1.49 1.49 0 0 0-.82-.45 4 4 0 0 0-1.34 0l-.22-1.86zM81.17 37.09l-.59-12.19a12.15 12.15 0 0 0-.15-1.64c-.07-.37-.07-.74-.15-1l4-1.64a3.14 3.14 0 0 0 .37.52 1.55 1.55 0 0 1 .3.45 2 2 0 0 0 .37.45c.15.15.3.37.45.52l8.1 9.22a8.92 8.92 0 0 0 1.19 1.19 3.49 3.49 0 0 0 .89.67 2 2 0 0 0 .89.22 5 5 0 0 0 1-.15l.8 1.79-8.85 3.72-.74-1.72a3.58 3.58 0 0 0 1.19-.89 1 1 0 0 0 .07-.89 9.47 9.47 0 0 0-1-1.41l-.3-.45-4.46 1.86v.48a4.57 4.57 0 0 0 .07 1 2.36 2.36 0 0 0 .22.67 1 1 0 0 0 .67.67 4.79 4.79 0 0 0 1.49-.22l.74 1.78-7.14 3-.72-1.84a6.69 6.69 0 0 0 .74-.67 2.48 2.48 0 0 0 .45-.74 5 5 0 0 0 .15-1 13.16 13.16 0 0 1-.07-1.71zm-22-2.38l1.12 1.49a5 5 0 0 0-1 1.12 1.64 1.64 0 0 0-.15 1c0 .15.07.22.07.37a.79.79 0 0 0 .15.37 3.23 3.23 0 0 1 .3.52l.52.74 5.31 7.18a2.44 2.44 0 0 1 .45.59 1.62 1.62 0 0 0 .3.37.39.39 0 0 0 .22.15c.07 0 .15.07.22.07h.3a.39.39 0 0 0 .3-.15 1.55 1.55 0 0 0 .45-.3l.67-.52.3-.22.74-.59.44-.4c.07-.15.22-.22.3-.37s.07-.3.15-.45a2.17 2.17 0 0 0-.07-1.19 15.73 15.73 0 0 0-.82-1.56l1.84-1.43 3.6 4.81-12.44 9.59-1.12-1.49a5 5 0 0 0 1-1.12 1.64 1.64 0 0 0 .15-1 1.69 1.69 0 0 0-.07-.3.79.79 0 0 0-.15-.37l-.3-.52c-.15-.22-.3-.45-.52-.74l-5.2-6.91-.59-.82c-.15-.15-.3-.37-.45-.52a1.62 1.62 0 0 0-.37-.3c-.15-.07-.22-.07-.37-.15a1.81 1.81 0 0 0-.89 0 3.77 3.77 0 0 0-1.19.67l-1.12-1.49zM43.7 48.32l1.41 1.26a4.35 4.35 0 0 0-.74 1.26 1.67 1.67 0 0 0 .07 1c.07.07.07.22.15.3a1 1 0 0 0 .22.3 2.45 2.45 0 0 0 .45.45 5.4 5.4 0 0 0 .67.59l6.54 5.72a5.42 5.42 0 0 0 .82.67 2.23 2.23 0 0 0 .52.37c.15.07.22.15.37.22a1.49 1.49 0 0 0 1.26-.15 3.63 3.63 0 0 0 1-.89l1.41 1.26-6.62 7.66-1.41-1.26a4.35 4.35 0 0 0 .74-1.26 1.64 1.64 0 0 0-.07-1c-.07-.07-.07-.22-.15-.3a1 1 0 0 0-.22-.3l-.45-.45-.67-.59-6.56-5.68-.82-.67a2.23 2.23 0 0 0-.52-.37.79.79 0 0 0-.37-.15c-.15 0-.22-.07-.37-.07a2 2 0 0 0-.89.22 3.91 3.91 0 0 0-1 .89l-1.41-1.26zM24.38 76.57l6.24 3.2 2.6-5-6.34-3.18 3.57-6.91 1.64.89a4.94 4.94 0 0 0-.45 1.49 1.49 1.49 0 0 0 .3 1l.22.3c.07.07.22.15.3.22l.52.3a4 4 0 0 0 .82.45l7.66 4 .89.45.59.22a.94.94 0 0 0 .45.07h.39a1.77 1.77 0 0 0 .82-.45 10.64 10.64 0 0 0 .82-1.12l1.64.89-3.49 6.76-7.58-3.94-2.53 5 7.58 3.94-3.49 6.84-1.67-.93a5.2 5.2 0 0 0 .45-1.41 1.49 1.49 0 0 0-.3-1 1 1 0 0 1-.22-.3c-.07-.07-.22-.15-.3-.22a4.27 4.27 0 0 1-.52-.3c-.22-.15-.45-.22-.82-.45l-7.66-4a4.88 4.88 0 0 0-.89-.45 1.94 1.94 0 0 0-.59-.22.94.94 0 0 0-.45-.07h-.35a2.75 2.75 0 0 0-.82.37 4.33 4.33 0 0 0-.82 1.12l-1.64-.89zm-9.5 29.28c.15-.82.3-1.49.37-2.08s.22-1.26.3-1.93a5.74 5.74 0 0 0 .15-1.12c0-.37.15-.67.15-.89.37-1.93 1.19-3.2 2.38-3.79s3-.67 5.28-.22a7.32 7.32 0 0 1 4.61 2.38 5.24 5.24 0 0 1 .67 4.61 6.74 6.74 0 0 1-1.71 3.49l-1.86-1.19a5 5 0 0 0 .52-1.34 1.62 1.62 0 0 0-.37-1.71 5.8 5.8 0 0 0-2.53-1 6.42 6.42 0 0 0-3.57-.07 2.06 2.06 0 0 0-1.12 1.71 2.93 2.93 0 0 0 .07 1.78 1.49 1.49 0 0 0 .45.52 3.11 3.11 0 0 0 1.12.3l8.62 1.78c.45.07.74.15 1 .22a2.06 2.06 0 0 0 .67.07h.45a.79.79 0 0 0 .37-.15 1.49 1.49 0 0 0 .67-.67 10.84 10.84 0 0 0 .52-1.41l1.86.37-2 10.11-1.86-.37a5 5 0 0 0 0-1.49 1.32 1.32 0 0 0-.52-.82 1 1 0 0 0-.3-.22.56.56 0 0 0-.37-.15l-.58-.07-.82-.22-8.47-1.78-1-.22a2.06 2.06 0 0 0-.67-.07.94.94 0 0 0-.45.07.79.79 0 0 0-.37.15 1.75 1.75 0 0 0-.67.59 3.66 3.66 0 0 0-.45 1.26l-1.86-.37zm.37 27.88l6.1 1.19 3-5.5.74 6.24 6.1 1.19-5.62 2.65.74 6.24-4.24-4.61-5.65 2.6 3-5.5zm8.55 35.9l1.64-6-5.2-3.42 6.17-.3 1.64-6 2.23 5.87 6.17-.3-4.83 3.94 2.23 5.87-5.2-3.42zM46.68 190l-5.87-2.08-3.72 5 .15-6.24-5.87-2.08 5.95-1.78.14-6.32 3.57 5.13 5.95-1.78-3.79 5zm11.3 16.5l-2.45 5.72-1.34-6.1-6.17-.62 5.35-3.2-1.34-6.1 4.68 4.16 5.35-3.2-2.6 5.72 4.68 4.16zm21 13.83l-1 6.17-2.75-5.58-6.17 1 4.39-4.39-2.75-5.65 5.5 2.9 4.39-4.39-1 6.17 5.5 2.9zm24.31 14.64l-4-4.76-5.72 2.38 3.27-5.35-3.96-4.74 6 1.49 3.27-5.35.45 6.24 6 1.49-5.72 2.36zm26.54 2l-5.05-3.64-5 3.72 1.86-5.95-5.01-3.6h6.25l1.86-5.95 1.93 5.95h6.21l-5 3.72zm26.27-4.47l-5.72-2.3-3.94 4.83.37-6.24-5.8-2.3 6-1.56.45-6.24 3.27 5.28 6-1.56-3.85 4.84zm18.29-11.52l-2.68 5.65-1.11-6.13-6.17-.82 5.5-3-1.12-6.18 4.46 4.31 5.5-3-2.67 5.69 4.46 4.31zm32.71-95c0 45.72-36.87 82.88-82.22 82.88S42.74 171.72 42.74 126s36.79-82.88 82.14-82.88S207.02 80.29 207.1 126zm-11.6 80.21l-1.26 6.1-2.53-5.72-6.17.67 4.61-4.16-2.53-5.72 5.35 3.12 4.61-4.16-1.26 6.1 5.35 3.12zm17.17-13.23l-3.79-4.89-5.8 2.16 3.49-5.2-3.79-4.91 5.95 1.71 3.49-5.2.22 6.24 5.95 1.71-5.8 2.16zm13.31-23.19l-4.91-3.87-5.13 3.49 2.16-5.87-4.91-3.87 6.17.22 2.16-5.87 1.71 6 6.17.22-5.13 3.49zm7.43-25.87l-5.65-2.53-4.16 4.61.67-6.24-5.65-2.53 6-1.26.67-6.24 3 5.43 6.1-1.26-4.1 4.62zm.59-38.06l-.45.3a6.86 6.86 0 0 0-.59.37l-10.48 6.32c-.59.37-1 .67-1.41.89a4.26 4.26 0 0 0-.82.82 1.65 1.65 0 0 0-.37.82 4.91 4.91 0 0 0-.07 1l-1.86.37-1.93-9.52 1.86-.37a3.38 3.38 0 0 0 .59 1.41 1 1 0 0 0 .89.22 14.87 14.87 0 0 0 1.56-.74l.45-.22-1-4.76-.52-.07a3.62 3.62 0 0 0-.89-.07 2.53 2.53 0 0 0-.74.07.89.89 0 0 0-.74.52 5.49 5.49 0 0 0 0 1.56l-1.86.37-1.64-7.58 1.86-.37a5.55 5.55 0 0 0 .52.89 1.19 1.19 0 0 0 .67.52 3.72 3.72 0 0 0 1 .37c.37.07.89.15 1.56.3l12 1.71c.67.07 1.26.15 1.64.22a4.15 4.15 0 0 0 1 0l.89 4.31-.59.3a.34.34 0 0 0-.45 0z"/>
  <path class="a" d="M114.1 121.84c.82-.52 1.26-2.45 1.26-2.45a38.38 38.38 0 0 0-6.84 2.68c.08-.08 4.76.21 5.58-.23z"/>
  <path class="a" d="M124.95 204.35a106.37 106.37 0 0 0 27.43-22.08 121.86 121.86 0 0 0 29.07-61.18c3.27.82 6.47 1.71 9.66 2.68l3.94-3.57c-1.71-.59-3.35-1.12-3.35-1.12a219.64 219.64 0 0 0-33.15-7.21 246.2 246.2 0 0 0-65.71-.15 224.79 224.79 0 0 0-34.96 7.44s-1.49.52-3.27 1.12l3.94 3.57c3.27-1 6.62-1.93 10-2.75a122.14 122.14 0 0 0 29 61.1 105.41 105.41 0 0 0 27.4 22.15zm36.72-44a17.6 17.6 0 0 1-9 2.45 15.54 15.54 0 0 1-1.86-.07 16.92 16.92 0 0 0-1.93-5 32.49 32.49 0 0 0 12.79 2.6zm-43.56-43.56a6.82 6.82 0 0 1 2.38.74 5.69 5.69 0 0 0 2.23.45 12.16 12.16 0 0 0 1.64-.15c.82-.07 1.64-.15 2.45-.15 8.25 0 14.72 4.61 15.76 11.3.89 5.65-2.68 11.45-9.37 13.68 0 0-4.16 1.56-7.66 2.82l-1.34.45c-3.94 1.34-10 3.42-10 7.58a4.8 4.8 0 0 0 1.49 3.27c1.86 1.93 5.35 3.12 9.07 3.12 4.39 0 8.25-1 9.81-2.6a2.23 2.23 0 0 0 .74-1.64c0-2-3-3.27-7.43-3.27-.82 0-1.64.07-2.45.15a19.94 19.94 0 0 0-7.43 2.16 1.71 1.71 0 0 1-.3-1c.15-.74 1-2.23 5.87-4 2.08-.74 4.16-1.41 5.87-2s3.57-1.12 5.05-1.71c6.39 1.71 10.56 5.05 10.56 9.29 0 6.69-9.59 12.34-21.33 12.64-7.73.22-14.94-2.08-18.58-5.8a8 8 0 0 1-2.53-5.72c0-10.26 16.8-15.61 16.95-15.68 3.57-1.26 7.88-2.82 7.88-2.82a20.52 20.52 0 0 0 5.28-2.6 6.93 6.93 0 0 0 2.68-5.2c-.07-4.31-5.58-7.81-11.82-7.81h-.15a5.48 5.48 0 0 0-4 1.93c-2.16 2.53-3.72 2.53-6.54 2.6-1.49 0-3 .15-4.46.3-4.76.67-6.32-2.38-6.62-3.27a43.86 43.86 0 0 1 16.28-7zm-27.5 16.43a17.77 17.77 0 0 0 4.16-2.38l.67-.59-.89.07a13.73 13.73 0 0 1-5.5-.45l-1.34-.45a29.53 29.53 0 0 0 13.9-1.78 10.87 10.87 0 0 0 1 .67c-3.27 2-8.85 4.53-12 4.91zm10.18 29.07c3.2 5.58 12.34 9.44 22.67 9.44s19.48-3.87 22.75-9.44a8.53 8.53 0 0 1 1.19 4.31c-.07 7.58-10.85 13.75-24 13.75-8.55 0-16.5-2.68-20.74-7a9.66 9.66 0 0 1-3.12-6.76 10 10 0 0 1 1.26-4.31zM143.69 80.66l-3.86-.23v16.8l3.86.22V80.66z"/>
  <path class="a" d="M97.45 73.07a54.09 54.09 0 0 1-27.73-2.3 129.72 129.72 0 0 0-2.45 41.48 229.91 229.91 0 0 1 25.5-4.83 246.21 246.21 0 0 1 65.71.15 224.79 224.79 0 0 1 24.23 4.68 127.8 127.8 0 0 0 .67-13.16 129.67 129.67 0 0 0-3.12-28.32A54.64 54.64 0 0 1 152.38 73a58 58 0 0 1-27.43-13.38 56.35 56.35 0 0 1-27.5 13.45zm-3.72 26.61a2.36 2.36 0 0 1-2.16 2.38l-6.47 1h-.45a1.75 1.75 0 0 1-1.86-1.63V80.5l3.72-.52v19.85l3.49-.52V79.5l3.72-.52v20.74zm62.74-20.89l2.16.3 5.13 11.75V79.76l3.49.52v22.9l-2.16-.3-5.05-11.38v10.7l-3.49-.45-.07-23zm-42.82 21.41l-2.16.15-5.13-10.41v10.78l-3.49.22v-22.9l2.16-.15 5.2 10.78V77.5l3.57-.22zm22.38-20.81a2.13 2.13 0 0 1 2.16-2l7.06.45a2.4 2.4 0 0 1 2.23 2.23v18.66a2.13 2.13 0 0 1-2.16 2h-.07l-6.91-.45a2.4 2.4 0 0 1-2.23-2.23zm-9.37 20.52h-3.78v-22.9h3.79v22.9z"/>
  <path d="M144.81 171.14a29.65 29.65 0 0 1-13.9 1.78l1.34.45a13.73 13.73 0 0 0 5.5.45l.89-.07-.67.59a17.77 17.77 0 0 1-4.16 2.38c3.12-.45 8.77-2.9 12-4.91a3.11 3.11 0 0 1-1-.67z" transform="translate(-43.12 -43.5)" fill="url(#a)"/>
  <path d="M166.51 223.84c13.23 0 23.94-6.17 24-13.75a9 9 0 0 0-1.19-4.31c-3.27 5.58-12.49 9.44-22.75 9.44s-19.48-3.87-22.67-9.44a8.59 8.59 0 0 0-1.26 4.31 9.37 9.37 0 0 0 3.12 6.76c4.24 4.31 12.24 6.99 20.75 6.99z" transform="translate(-43.12 -43.5)" fill="url(#b)"/>
  <path d="M195.73 206.3a17.22 17.22 0 0 0 9-2.45 31.56 31.56 0 0 1-12.79-2.68 16.92 16.92 0 0 1 1.93 5 17 17 0 0 0 1.86.13z" transform="translate(-43.12 -43.5)" fill="url(#c)"/>
  <path d="M151.65 170.62a30 30 0 0 1 4.46-.3c2.82-.07 4.39-.15 6.54-2.6a5.2 5.2 0 0 1 4-1.93h.15c6.24 0 11.75 3.49 11.82 7.81a6.93 6.93 0 0 1-2.68 5.2 20.52 20.52 0 0 1-5.28 2.6s-4.31 1.56-7.88 2.82c-.15.07-16.95 5.43-16.95 15.68a8.31 8.31 0 0 0 2.53 5.72c3.72 3.72 10.85 6 18.58 5.8 11.75-.3 21.26-5.95 21.33-12.64 0-4.24-4.16-7.58-10.56-9.29-1.49.59-3.27 1.12-5.05 1.71s-3.79 1.19-5.87 2c-4.83 1.78-5.72 3.27-5.87 4a1.11 1.11 0 0 0 .3 1 19.94 19.94 0 0 1 7.43-2.16c.82-.07 1.64-.15 2.45-.15 4.46 0 7.43 1.26 7.43 3.27a2.39 2.39 0 0 1-.74 1.64c-1.56 1.56-5.35 2.6-9.81 2.6-3.72 0-7.21-1.19-9.07-3.12a4.8 4.8 0 0 1-1.49-3.27c0-4.16 5.95-6.24 10-7.58l1.34-.45c3.49-1.26 7.66-2.82 7.66-2.82 6.69-2.16 10.26-8 9.37-13.68-1-6.62-7.51-11.3-15.76-11.3-.82 0-1.64.07-2.45.15a12.16 12.16 0 0 1-1.64.15 3.9 3.9 0 0 1-2.23-.45 6.82 6.82 0 0 0-2.38-.74 42.75 42.75 0 0 0-16.33 7.13c.33.82 1.81 3.86 6.65 3.2zm6.84-7.73s-.45 1.93-1.26 2.45-5.5.15-5.5.15a32.58 32.58 0 0 1 6.76-2.6z" transform="translate(-43.12 -43.5)" fill="url(#d)"/>
  <path d="M133.14 142.81l-3.49.52v-19.84l-3.72.52v20.67a1.74 1.74 0 0 0 1.56 1.86h.67l6.47-1a2.41 2.41 0 0 0 2.16-2.38v-20.79l-3.72.52z" transform="translate(-43.12 -43.5)" fill="url(#e)"/>
  <path fill="url(#f)" d="M110.09 88.61l-5.13-10.71-2.15.08v22.89l3.57-.22V89.87l5.05 10.41 2.23-.15V77.31l-3.57.22v11.08z"/>
  <path fill="url(#g)" d="M122.88 99.91h3.79l-.08-22.82h-3.71v22.82z"/>
  <path d="M181.38 143.71l6.91.45h.07a2.19 2.19 0 0 0 2.16-2v-18.67a2.4 2.4 0 0 0-2.23-2.23l-7.06-.45a2.19 2.19 0 0 0-2.16 2v18.66a2.53 2.53 0 0 0 2.31 2.24zm1.56-19.77l3.87.22V141l-3.87-.22v-16.8z" transform="translate(-43.12 -43.5)" fill="url(#h)"/>
  <path fill="url(#i)" d="M159.97 91.43l5.06 11.38 2.23.29V80.28l-3.5-.52v11.08l-5.13-11.82-2.15-.3v22.9l3.49.52V91.43z"/>
  <path d="M250.14 169.5a83 83 0 0 0-54.64-78.13v25.2a54.76 54.76 0 0 0 27.88-2.23 129.67 129.67 0 0 1 3.12 28.32 127.8 127.8 0 0 1-.67 13.16 221.34 221.34 0 0 0-24.23-4.68 246.2 246.2 0 0 0-65.71-.15 226.73 226.73 0 0 0-25.5 4.83 129.59 129.59 0 0 1 2.45-41.48 55 55 0 0 0 27.73 2.3V91.37a83.15 83.15 0 0 0 0 156.25v-22a122.14 122.14 0 0 1-29-61.1c-3.35.82-6.69 1.78-10 2.75l-3.94-3.57c1.78-.59 3.27-1.12 3.27-1.12a224.78 224.78 0 0 1 34.94-7.43 246.21 246.21 0 0 1 65.71.15 219.64 219.64 0 0 1 33.15 7.21s1.64.52 3.35 1.12l-3.94 3.57c-3.12-1-6.39-1.86-9.66-2.68a122.48 122.48 0 0 1-29.07 61.18v21.85a82.88 82.88 0 0 0 54.76-78.05z" transform="translate(-43.12 -43.5)" fill="url(#j)"/>
  <path d="M59 154.56a1.31 1.31 0 0 1 .67-.59c.15-.07.22-.07.37-.15a.94.94 0 0 1 .45-.07c.15 0 .45.07.67.07l1 .22 8.4 1.71.95.25.59.15a.79.79 0 0 1 .37.15 1 1 0 0 0 .3.22 2.11 2.11 0 0 1 .59.82 5 5 0 0 1 0 1.49l1.86.37 2-10.11-1.86-.37a3.26 3.26 0 0 1-.52 1.41 1.49 1.49 0 0 1-.67.67c-.15.07-.22.07-.37.15h-.43a2.06 2.06 0 0 1-.67-.07c-.22-.07-.59-.07-1-.22l-8.7-1.83a6.19 6.19 0 0 1-1.12-.3 1 1 0 0 1-.45-.52 2.93 2.93 0 0 1-.07-1.78 2.19 2.19 0 0 1 1.12-1.71 7.22 7.22 0 0 1 3.57.07 6.17 6.17 0 0 1 2.53 1 1.62 1.62 0 0 1 .37 1.71 7.15 7.15 0 0 1-.52 1.34l1.86 1.12a6.74 6.74 0 0 0 1.71-3.53c.37-2 .15-3.57-.67-4.61a7.7 7.7 0 0 0-4.61-2.38c-2.23-.45-4.09-.45-5.28.22a5.25 5.25 0 0 0-2.38 3.79c-.07.22-.07.52-.15.89a5.74 5.74 0 0 0-.15 1.12c-.07.67-.22 1.34-.3 1.93s-.22 1.34-.37 2.08l-1.26 6.1 1.86.37a1.69 1.69 0 0 1 .31-1.18z" transform="translate(-43.12 -43.5)" fill="url(#k)"/>
  <path d="M66.46 126.61a1.2 1.2 0 0 1 .82-.37h.37a.94.94 0 0 1 .45.07 5.12 5.12 0 0 1 .59.22 5 5 0 0 0 .89.45l7.66 4a4 4 0 0 1 .82.45 4.27 4.27 0 0 0 .52.3 1.32 1.32 0 0 1 .52.52 1.17 1.17 0 0 1 .3 1 4.46 4.46 0 0 1-.45 1.41l1.64.89 3.49-6.84-7.51-3.94 2.6-5 7.58 3.94 3.49-6.76-1.71-.89a4.33 4.33 0 0 1-.82 1.12 1.77 1.77 0 0 1-.82.45h-.36c-.15 0-.3-.07-.45-.07a3.06 3.06 0 0 1-.59-.22l-.89-.45-7.66-4a8.11 8.11 0 0 1-.82-.45l-.52-.3a1 1 0 0 1-.3-.22l-.22-.3a1.17 1.17 0 0 1-.3-1 4.94 4.94 0 0 1 .45-1.49l-1.64-.89-3.59 6.92 6.32 3.2-2.6 5-6.32-3.27-3.49 6.76 1.64.89z" transform="translate(-43.12 -43.5)" fill="url(#l)"/>
  <path d="M82.66 99.92a2 2 0 0 1 .89-.22c.15 0 .22.07.37.07a1.91 1.91 0 0 1 .37.15 3.14 3.14 0 0 1 .52.37l.83.71 6.54 5.72.67.59.45.45c.07.07.15.22.22.3s.07.22.15.3a1.64 1.64 0 0 1 .07 1 4.35 4.35 0 0 1-.74 1.26l1.41 1.26 6.62-7.73-1.49-1.15a12.94 12.94 0 0 1-1 .89 1.49 1.49 0 0 1-1.26.15 1.63 1.63 0 0 1-.37-.22c-.15-.15-.37-.22-.52-.37s-.45-.37-.82-.67L89.05 97a6.08 6.08 0 0 1-.67-.59l-.44-.41c-.07-.07-.15-.22-.22-.3s-.07-.22-.15-.3a1.64 1.64 0 0 1-.07-1 4.35 4.35 0 0 1 .74-1.26l-1.41-1.26-6.62 7.73 1.41 1.19a5.61 5.61 0 0 1 1.04-.88z" transform="translate(-43.12 -43.5)" fill="url(#m)"/>
  <path d="M96.56 85.28a1.81 1.81 0 0 1 .89 0c.15.07.22.07.37.15a1.31 1.31 0 0 1 .37.3 3.23 3.23 0 0 1 .45.52l.59.82 5.2 6.91c.22.3.37.52.52.74l.3.52a.56.56 0 0 1 .15.37c0 .07.07.22.07.3a1.26 1.26 0 0 1-.15 1 3.72 3.72 0 0 1-1 1.12l1.12 1.49 12.79-9.74-3.68-4.78-1.86 1.41a5.2 5.2 0 0 1 .82 1.56 2.17 2.17 0 0 1 .07 1.19 1.06 1.06 0 0 1-.15.45.74.74 0 0 1-.3.37l-.45.45-.68.57-.07.07-.67.52c-.15.07-.3.22-.45.3a1.09 1.09 0 0 0-.3.15h-.3a.28.28 0 0 1-.22-.07c-.07-.07-.15-.07-.22-.15a1.62 1.62 0 0 1-.3-.37c-.07-.15-.3-.37-.45-.59l-5.35-7.14-.57-.72a4.27 4.27 0 0 1-.3-.52.56.56 0 0 1-.15-.37 3.22 3.22 0 0 1-.07-.37 1.26 1.26 0 0 1 .15-1 6.42 6.42 0 0 1 1-1l-1.12-1.49-8.33 6.24 1.12 1.49a6 6 0 0 1 1.16-.7z" transform="translate(-43.12 -43.5)" fill="url(#n)"/>
  <path d="M124.14 83.2a1.54 1.54 0 0 1-.45.74 6.69 6.69 0 0 1-.74.67l.74 1.78 7.14-3-.74-1.78a3.29 3.29 0 0 1-1.49.22 1 1 0 0 1-.67-.67l-.22-.67a3.92 3.92 0 0 1-.07-1V79l4.46-1.86.3.45a6 6 0 0 1 1 1.41.74.74 0 0 1-.07.89 2.87 2.87 0 0 1-1.26.82l.74 1.78 8.85-3.72-.79-1.77a4.39 4.39 0 0 1-1 .15 2 2 0 0 1-.89-.22 2 2 0 0 1-.89-.67l-1.19-1.19-8.18-9.22a3.23 3.23 0 0 1-.45-.52c-.15-.15-.22-.3-.37-.45a1.55 1.55 0 0 1-.3-.45c-.07-.15-.22-.3-.37-.52l-4 1.64a9.14 9.14 0 0 1 .15 1c.07.52.07 1.12.15 1.64l.59 12.19v1.56a1.89 1.89 0 0 1 .02 1.26zM127 70.71l.22.3.37.52c.15.15.3.37.45.52l.37.45c.09.14.2.31.3.45l1.56 1.93-3.27 1.33-.15-3.27-.15-2.45a.46.46 0 0 1 .3.22z" transform="translate(-43.12 -43.5)" fill="url(#o)"/>
  <path d="M146.29 60.6a1.77 1.77 0 0 1 .82.45c.07.07.15.22.22.3a.79.79 0 0 1 .15.37c.07.22.07.45.15.67s.07.59.15 1l1 8.62a4.27 4.27 0 0 1 .07.89 1.49 1.49 0 0 0 .07.59v.41c0 .07-.07.22-.07.3a1.15 1.15 0 0 1-.59.82 5.2 5.2 0 0 1-1.41.45l.15 1.85 6.62-.74 1.78-.22a15.7 15.7 0 0 1 1.93-.15c.37 0 .67-.07 1-.07l.74-.07a7.22 7.22 0 0 0 5.58-3c1.12-1.71 1.49-4.16 1.12-7.21a15.81 15.81 0 0 0-.82-3.72 10.49 10.49 0 0 0-1.41-2.9 4.55 4.55 0 0 0-2.54-1.91 8.47 8.47 0 0 0-3.87-.22l-1 .15-1.26.22c-.45.07-1.12.15-1.93.3l-2.9.37-5.43.67.39 1.78a4 4 0 0 1 1.29 0zm6.54.82a1.2 1.2 0 0 1 .22-.67 3 3 0 0 1 .67-.37l1.19-.22a6.53 6.53 0 0 1 2.08.07 2.78 2.78 0 0 1 1.49.89 5.9 5.9 0 0 1 1 1.93 20.07 20.07 0 0 1 .59 3 15.84 15.84 0 0 1 .15 3.27 5.33 5.33 0 0 1-.45 2.16 2.79 2.79 0 0 1-1.19 1.26 6.69 6.69 0 0 1-2.08.59 7.21 7.21 0 0 1-1.26.07 1.32 1.32 0 0 1-.74-.3l-.22-.22a.39.39 0 0 1-.15-.3.94.94 0 0 1-.07-.45c0-.15-.07-.45-.07-.74l-1-9a4.57 4.57 0 0 1-.07-1z" transform="translate(-43.12 -43.5)" fill="url(#p)"/>
  <path d="M190.75 71.82l-2.3-.37a13.87 13.87 0 0 1-.52 1.64 2 2 0 0 1-.67.89 2.59 2.59 0 0 1-1 .37 5.05 5.05 0 0 1-1.49-.15l-.67-.07c-.52-.07-1-.15-1.26-.22a1.49 1.49 0 0 1-.67-.37.85.85 0 0 1-.22-.59c0-.37.07-.67.07-1l.52-3.35 3.79.59a11.66 11.66 0 0 1 1.19.22c.3.07.52.15.74.22l.52-3.27H188c-.3 0-.67-.07-1-.07l-3.94-.59.45-3.2c.07-.3.07-.59.15-.89a.57.57 0 0 1 .37-.45 2.17 2.17 0 0 1 .67-.15c.37 0 .74.07 1.12.07l.37.07a8.7 8.7 0 0 1 1.49.37 1.9 1.9 0 0 1 .89.59 2.3 2.3 0 0 1 .45 1 10 10 0 0 1 .07 1.49l2.3.37.89-6.1a3 3 0 0 1-.82.07h-.74a3 3 0 0 1-.82-.07l-1.19-.15-12.12-1.86-.3 1.86a6.28 6.28 0 0 1 1.26.37 1.49 1.49 0 0 1 .67.67c.07.15.07.22.15.37a.94.94 0 0 1 .07.45 2.06 2.06 0 0 1-.07.67 6.93 6.93 0 0 1-.15 1l-1.34 8.55c-.07.37-.07.67-.15.89a1.85 1.85 0 0 0-.07.59.79.79 0 0 1-.15.37 1.09 1.09 0 0 0-.15.3 1.15 1.15 0 0 1-.82.59 5 5 0 0 1-1.49 0l-.3 1.86 16.06 2.45z" transform="translate(-43.12 -43.5)" fill="url(#q)"/>
  <path d="M213.42 80.3l-2.16-.89a6.08 6.08 0 0 1-.89 1.49 1.77 1.77 0 0 1-1 .67c-.15.07-.3.07-.45.15h-.45c-.22-.07-.45-.07-.59-.15s-.52-.22-.89-.37l-.3-.15-.69-.38-.45-.22c-.07-.07-.22-.15-.3-.22L205 80a.28.28 0 0 1-.07-.22v-.3a1.06 1.06 0 0 1 .15-.45c.07-.15.15-.45.3-.74l3.43-8.29c.15-.37.3-.59.37-.82a3.63 3.63 0 0 1 .22-.52 1 1 0 0 1 .22-.3l.22-.22a1.41 1.41 0 0 1 1-.37 3.38 3.38 0 0 1 1.49.37l.67-1.74-9.44-3.94-.74 1.78a5.55 5.55 0 0 1 1.12.67 1.54 1.54 0 0 1 .45.74c0 .15.07.22.07.37a.94.94 0 0 1-.07.45l-.22.67a8.34 8.34 0 0 1-.37 1l-3.27 8c-.15.37-.3.59-.37.82l-.22.52a1 1 0 0 1-.22.3l-.22.22a1.41 1.41 0 0 1-1 .37 3.38 3.38 0 0 1-1.49-.37l-.74 1.78 14.79 6.1z" transform="translate(-43.12 -43.5)" fill="url(#r)"/>
  <path d="M226 93.6a5 5 0 0 1-1.12-1 2.11 2.11 0 0 1-.3-.89v-.41a1.91 1.91 0 0 1 .15-.37 1.33 1.33 0 0 1 .37-.52c.15-.22.37-.52.59-.82l.67-1a11.89 11.89 0 0 0 3 3 5.45 5.45 0 0 0 4.5 1.41c1.41-.3 2.75-1.34 4.09-3.2a9.22 9.22 0 0 0 2.05-4.89c0-1.34-.82-2.6-2.38-3.79l-.74-.52-.88-.68a14.18 14.18 0 0 1-1.56-1.12c-.52-.37-1-.74-1.71-1.26l-4.91-3.72-1.12 1.49a3.64 3.64 0 0 1 .89 1 1.58 1.58 0 0 1 .22.89.56.56 0 0 1-.07.37 1.06 1.06 0 0 1-.15.45 2.61 2.61 0 0 1-.37.59c-.15.22-.37.52-.59.82l-5.13 7.06c-.22.3-.45.52-.59.74l-.37.45a.46.46 0 0 1-.3.22l-.24.1a1.64 1.64 0 0 1-1 .15 5.63 5.63 0 0 1-1.34-.67L216.47 89l8.25 6.24zm5-11.3a7.87 7.87 0 0 1 .74-.89 1.2 1.2 0 0 1 .67-.22 2.77 2.77 0 0 1 1.64.74 2 2 0 0 1 1 1.71 6.59 6.59 0 0 1-1.64 3.2 5.78 5.78 0 0 1-1.93 1.86 1.62 1.62 0 0 1-1.71-.37c-.22-.15-1.41-.89-2.23-1.49z" transform="translate(-43.12 -43.5)" fill="url(#s)"/>
  <path d="M239.36 103.94c-.07 0-.22.07-.3.07a1.31 1.31 0 0 1-1-.15 3.72 3.72 0 0 1-1.12-1l-1.52 1.14 4.61 6.1 6.76-5.2 3.42 4.46-6.76 5.2 4.68 6.1 1.49-1.19a4.81 4.81 0 0 1-.67-1.19 1.81 1.81 0 0 1 0-.89.79.79 0 0 1 .15-.37 1.31 1.31 0 0 1 .3-.37l.45-.45.82-.67 6.84-5.28a3.43 3.43 0 0 1 .74-.52l.45-.37a.56.56 0 0 1 .37-.15l.3-.07a1.26 1.26 0 0 1 1 .15 5 5 0 0 1 1.12 1l1.49-1.19-4.61-6.1-5.65 4.31-3.42-4.46 5.58-4.31-4.68-6.1-1.49 1.19a6.15 6.15 0 0 1 .67 1.19 1.81 1.81 0 0 1 0 .89c-.07.15-.07.22-.15.37s-.15.22-.22.37a3.23 3.23 0 0 1-.52.45c-.22.15-.45.37-.82.67l-6.84 5.28a3.43 3.43 0 0 1-.74.52l-.45.37z" transform="translate(-43.12 -43.5)" fill="url(#t)"/>
  <path d="M255.72 127.13l-.52.22a.67.67 0 0 1-.37.07h-.37a1.57 1.57 0 0 1-1-.37 4.6 4.6 0 0 1-.82-1.26l-1.71.74 4.16 9.37 1.71-.74a9 9 0 0 1-.37-1.34 1.89 1.89 0 0 1 .15-.89 1 1 0 0 1 .22-.3 1.62 1.62 0 0 1 .37-.3 1.49 1.49 0 0 1 .59-.3l1-.45 7.88-3.57c.37-.15.59-.3.82-.37l.52-.22a.67.67 0 0 1 .37-.07h.37a1.57 1.57 0 0 1 1 .37 7.37 7.37 0 0 1 .82 1.26l1.71-.74-4.16-9.37-1.71.74a8.13 8.13 0 0 1 .37 1.26 3.72 3.72 0 0 1-.15.89c-.07.07-.15.22-.22.3a1.12 1.12 0 0 1-.3.3 1.49 1.49 0 0 1-.59.3l-1 .45-7.88 3.57a9.66 9.66 0 0 0-.89.45z" transform="translate(-43.12 -43.5)" fill="url(#u)"/>
  <path d="M277.35 144.6h-1a7.68 7.68 0 0 1-1.64-.22l-12-1.71c-.67-.07-1.12-.22-1.56-.3a3.72 3.72 0 0 1-1-.37 4.09 4.09 0 0 1-.67-.52 5.55 5.55 0 0 1-.52-.89l-1.86.37 1.56 7.66 1.86-.37a5.49 5.49 0 0 1 0-1.56.89.89 0 0 1 .74-.52 2.53 2.53 0 0 1 .74-.07 3.62 3.62 0 0 1 .89.07l.52.07 1 4.76-.45.22a14.87 14.87 0 0 1-1.56.74 1 1 0 0 1-.89-.22 3.38 3.38 0 0 1-.59-1.41l-1.86.37 1.93 9.52 1.86-.37a4.91 4.91 0 0 1 .07-1 2.75 2.75 0 0 1 .37-.82 4.26 4.26 0 0 1 .82-.82 7.78 7.78 0 0 1 1.41-.89L276 150l.59-.37.45-.3a3.63 3.63 0 0 1 .52-.22l.59-.3zm-5.5 2.68c-.07.07-.22.07-.3.15l-.52.3a2.23 2.23 0 0 1-.59.3l-.59.3c-.07.07-.15.07-.22.15a1.06 1.06 0 0 0-.3.15l-2.16 1.19-.74-3.42 3.27.45 2.38.3z" transform="translate(-43.12 -43.5)" fill="url(#v)"/>
  <path d="M168 43.5c-68.84 0-124.88 56.57-124.88 126s56 126 124.88 126 124.88-56.5 124.88-126-56.04-126-124.88-126zm0 247.17c-66.16 0-120.05-54.34-120.05-121.09S101.84 48.41 168 48.41s120.05 54.34 120.05 121.09S234.16 290.67 168 290.67z" transform="translate(-43.12 -43.5)" fill="url(#w)"/>
  <path fill="url(#x)" d="M22.08 141.16l4.16 4.61-.74-6.24 5.65-2.6-6.1-1.19-.74-6.25-2.97 5.51-6.1-1.27 4.16 4.61-2.97 5.43 5.65-2.61z"/>
  <path fill="url(#y)" d="M31.59 163.24l4.83-3.86-6.17.29-2.23-5.87-1.63 6.02-6.17.3 5.2 3.42-1.63 6.09 4.83-3.93 5.2 3.42-2.23-5.88z"/>
  <path fill="url(#z)" d="M40.96 181.68l-3.49-5.21-.15 6.25-5.95 1.86 5.87 2-.15 6.32 3.72-4.98 5.87 2.08-3.56-5.2 3.79-4.98-5.95 1.86z"/>
  <path fill="url(#aa)" d="M61.92 197.21l-5.28 3.2-4.68-4.16 1.34 6.09-5.28 3.2 6.17.59 1.34 6.1 2.45-5.72 6.17.59-4.68-4.16 2.45-5.73z"/>
  <path fill="url(#ab)" d="M80.73 210.37l-4.46 4.39-5.5-2.9 2.75 5.65-4.39 4.38 6.1-.96 2.82 5.65.97-6.17 6.17-.97-5.5-2.9 1.04-6.17z"/>
  <path fill="url(#ac)" d="M102.51 224.87l-.45-6.25-3.27 5.35-6.02-1.48 4.02 4.76-3.27 5.35 5.79-2.38 4.02 4.76-.52-6.25 5.72-2.38-6.02-1.48z"/>
  <path fill="url(#ad)" d="M126.67 227.4l-1.93-5.95-1.94 6.02h-6.17l5.06 3.64-1.86 5.95 4.98-3.72 4.98 3.64-1.93-5.87 5.05-3.71h-6.24z"/>
  <path fill="url(#ae)" d="M150.75 223.97l-3.34-5.27-.37 6.24-6.02 1.56 5.72 2.31-.37 6.24 3.94-4.83 5.72 2.38-3.27-5.35 3.94-4.76-5.95 1.48z"/>
  <path fill="url(#af)" d="M178.7 211.93l-5.42 2.9-4.46-4.31 1.04 6.17-5.43 2.97 6.1.82 1.11 6.17 2.68-5.65 6.17.89-4.46-4.38 2.67-5.58z"/>
  <path fill="url(#ag)" d="M197.51 196.32l-4.61 4.24-5.35-3.12 2.53 5.65-4.61 4.23 6.17-.66 2.53 5.72 1.33-6.17 6.1-.67-5.35-3.05 1.26-6.17z"/>
  <path fill="url(#ah)" d="M212.3 182.94l-.22-6.32-3.42 5.21-6.02-1.71 3.87 4.9-3.5 5.21 5.87-2.16 3.8 4.91-.23-6.25 5.8-2.08-5.95-1.71z"/>
  <path fill="url(#ai)" d="M223.23 160.05l-1.71-6.02-2.08 5.87-6.24-.23 4.9 3.87-2.15 5.87 5.2-3.49 4.83 3.86-1.71-6.02 5.13-3.49-6.17-.22z"/>
  <path fill="url(#aj)" d="M228.36 135.14l-3.05-5.42-.67 6.24-6.02 1.26 5.65 2.61-.67 6.17 4.17-4.61 5.65 2.52-3.13-5.42 4.17-4.61-6.1 1.26z"/>
  <path d="M251.48 272.9h-2.08v5.65h-1.86v-5.65h-2.08v-1.56h6v1.56zm10.26 5.65h-1.93v-5.65h-.22l-1.78 3.94h-1.34l-1.78-4h-.3v5.72h-1.78v-7.21h3.12l1.41 3.57 1.49-3.57h3z" transform="translate(-43.12 -43.5)" fill="url(#ak)"/>
  <path class="am" d="M152.38 73.07v-25.2a81.07 81.07 0 0 0-54.93 0v25.2a57.54 57.54 0 0 0 27.5-13.38 56.31 56.31 0 0 0 27.43 13.38zM124.95 204.35a107 107 0 0 1-27.5-22.15v22a81.07 81.07 0 0 0 54.93 0v-21.85a109 109 0 0 1-27.43 22z"/>
</svg>
