<svg xmlns="http://www.w3.org/2000/svg" width="249.174" height="365" version="1.0"><path d="M57.44 258.357a265.2 265.2 0 0 0-44.177-34.06s4.133-10.205 5.518-15.32c11.103-41.18 1.248-74.213-16.968-111.906 0 0 28.968 3.21 47.696 1.397 26.846-2.614 50.818-10.018 75.08-22.094 42.185 20.987 76.77 25.792 122.764 20.693-21.556 44.594-29.979 81.508-11.45 127.227 0 0-10.861 6.679-17.54 11.621-48.116 35.617-72.226 73.103-93.774 129.085-16.534-42.948-33.231-74.427-67.15-106.643" style="fill:#142530"/><path d="M62.772 252.743c-12.137-11.527-25.564-22.82-39.888-31.583a94 94 0 0 0 3.363-10.167c9.541-35.422 4.63-71.554-11.389-104.697a188 188 0 0 0 35.395-.141 212.3 212.3 0 0 0 74.336-21.136c31.762 15.804 73.923 25.33 109.72 21.277-16.026 33.143-20.939 69.275-11.39 104.697a93 93 0 0 0 3.37 10.167s-5.5 3.355-12.514 8.55c-39.494 29.227-71.344 67.423-89.182 113.768-13.816-35.857-34.27-64.542-61.821-90.735" style="fill:#fff"/><path d="M64.886 250.514c20.728 19.693 44.929 48.302 59.703 84.503 17.354-42.548 50.547-80.546 87.343-107.773 5.083-3.763 8.812-6.233 10.549-7.359a129 129 0 0 1-6.859-32.948 151.3 151.3 0 0 1 13.56-77.034c-34.593 2.358-73.85-6.294-104.59-21.446-30.75 15.148-70.003 23.804-104.585 21.446 14.617 31.59 18.262 68.324 9.224 101.887-1.05 3.87-1.996 6.626-2.53 8.095a264 264 0 0 1 38.185 30.629" style="fill:#005595"/><path d="M41.715 137.94C32.06 85.29 33.246 32.184 33.246 32.184L124.59 0l91.331 32.185s1.195 53.104-8.469 105.754c-11.16 60.92-31.59 116.433-82.862 155.851-51.284-39.414-71.691-94.926-82.874-155.85" style="fill:#142530"/><path d="M51.715 136.226a534.6 534.6 0 0 1-8.412-96.503l81.286-28.655 81.267 28.655a534.4 534.4 0 0 1-8.408 96.503c-9.439 51.455-28.781 110.635-72.86 144.515-44.088-33.88-63.42-93.06-72.873-144.515" style="fill:#fff"/><path d="M56.967 135.268c9.209 50.238 28.338 107.406 67.622 138.737 58.993-47.051 76.465-158.794 76.011-230.496L124.59 16.732 48.562 43.509a525 525 0 0 0 8.405 91.759" style="fill:#5d9741"/><g style="fill:#fff"><path d="m105.605 134.478-5.809-41.975c-5.278-1.462-15.11-4.824-15.11-11.679-5.01-2.462-10.385-6.202-10.385-11.541 0-6.145 6.851-10.13 12.82-12.584 3.832-4.48 11.355-7.541 19.877-9.24a11.53 11.53 0 0 1 3.504-6.328 24.7 24.7 0 0 1 7.324-4.362l.782-1.072 1.382-18.175c.836-5.126 6.171-4.55 7.778-2.721a4.7 4.7 0 0 1 1.298 2.76l1.484 18.12.821 1.111c8.855 3.504 10.572 7.92 11.01 10.606 8.352 1.084 15.832 4.798 19.656 9.305 5.985 2.454 12.828 6.439 12.828 12.584 0 5.339-5.374 9.045-10.385 11.495 0 7.14-9.713 10.412-15.213 11.824l-5.763 41.876h-37.899M97.812 250.735c4.503-30.048 7.69-42.72 9.354-73.534h34.827c1.84 31.792 5.129 43.486 10.094 73.752l-27.498 27.895z"/></g><g style="fill:#142530"><path d="m109.62 134.478-6.328-45.14c-7.976-1.873-14.686-4.987-14.686-8.514a3.7 3.7 0 0 1 .817-2.256c-6.511-2.519-10.42-5.763-10.42-9.285 0-3.542 3.97-6.794 10.572-9.34 2.955-4.24 11.175-7.67 21.847-9.259-1.996-3.095 1.706-6.637 1.706-6.637a19.7 19.7 0 0 1 7.14-3.954l2.191-3.018 1.374-19.114c.733-2.687 1.512 0 1.512 0l1.37 19.114 1.68 2.3c6.167 1.81 8.62 4.837 8.62 4.837l-1.266-.092c-5.657.687-7.195 3.698-6.97 5.713 14.916.664 27.075 4.744 30.823 10.107 6.6 2.545 10.565 5.8 10.565 9.339 0 3.523-3.897 6.767-10.408 9.286a3.83 3.83 0 0 1 .805 2.255c0 3.527-5.835 6.649-14.827 8.572l-6.187 45.082h-3.206l3.42-42.376c.076-.504.156-1.889-1.649-1.572-1.336.221-4.584.721-4.584.721a1.66 1.66 0 0 0-1.603 1.863s.038 22.174.023 41.36H117.25V93.335a1.75 1.75 0 0 0-1.573-2.065l-4.442-.714c-2.29-.442-1.848 1.455-1.848 1.455l3.481 42.46h-3.248M101.128 252.884c2.347-12.881 8.721-41.945 10.275-75.664h26.338c1.55 33.72 7.893 62.664 10.259 75.568l-6.187 7.721c-2.877-14.178-4.545-22.617-7.148-36.647-.409-2.236-.993-3.526-1.962-3.4-.782.11-1.164 1.149-1.244 3.667l-3.103 47.632-3.778 5.663-3.794-5.663-3.1-47.632c-.087-2.518-.461-3.557-1.24-3.667-.965-.126-1.553 1.164-1.965 3.4-2.603 14.03-4.214 22.282-7.08 36.46z"/></g><path d="M138.76 60.787a33.8 33.8 0 0 0-9.683-1.08l1.096-.615c3.621-2.003 9.281-2.545 13.625-1.446 3.885 1.004 13.812 6.484 11.38 12.984a33.6 33.6 0 0 0-4.075-3.805 1.717 1.717 0 0 0-.97 2.164c2.752 2.64 4.263 6.08 3.088 9.22-3.668-5.117-11.809-9.533-18.049-11.522l-.553-.175c3.378-2.576 7.961-2.149 11.793-.168a1.82 1.82 0 0 0 .97-2.046 33.9 33.9 0 0 0-8.622-3.511" style="fill:#fff"/><path d="M0 135.57c40.845-17.435 80.091-26.331 124.589-26.331 44.478 0 83.732 8.896 124.585 26.33v78.416c-42.372-18.083-78.328-27.582-124.585-27.582-46.246 0-82.217 9.495-124.59 27.582z" style="fill:#142530"/><path d="M7.908 140.653v62.966a300.56 300.56 0 0 1 234.942 0v-62.966a300.6 300.6 0 0 0-234.942 0" style="fill:#fff"/><g style="fill:#142530"><path d="M61.947 142.042c0 2.37 1.107 2.733 3.859 2.19l3.66-.705c4.019-.782 4.92-1.431 4.92-4.393 0-3.19-1.088-3.29-5.79-2.366-3.24.645-3.607.683-3.607-.267 0-.588.466-.932 1.145-1.073l3.355-.649c1.385-.278 1.462.046 1.462.847l3.03-.591v-.34c0-1.935-.325-3.19-3.82-2.511l-4.218.824c-3.816.737-3.98 2.306-3.98 4.286 0 2.699.522 3.199 5.068 2.306 3.9-.745 4.255-.764 4.255.194 0 .844-.664 1.05-1.305 1.172l-3.698.725c-.874.168-1.294.168-1.313-.992l-3.023.584zM83.381 140.962l10.958-1.359v-2.629l-7.935.988v-1.771l6.309-.778 1.053-2.378-7.362.893v-1.767l7.77-.931v-2.561l-10.793 1.324zM109.613 130.05l1.961 3.966-3.866.282zm-7.298 8.935 3.363-.248.893-1.992 6.133-.428.939 1.878 3.366-.252-5.43-10.568-3.932.267zM122.734 129.856l4.248.084v8.236l3.019.053v-8.236l4.255.077v-2.733l-11.522-.195zM140.161 130.302l4.255.298v8.232l3.011.207v-8.233l4.252.294v-2.725l-11.518-.798zM159.61 140.172l9.809 1.378v-2.817l-6.775-.958v-8.133l-3.034-.42zM176.246 142.71l10.966 2.126v-2.63l-7.931-1.553v-1.756l6.083 1.161 1.267-1.997-7.35-1.427v-1.756l7.759 1.512v-2.538l-10.794-2.111zM22.495 189.189a14.34 14.34 0 0 1-8.618.366l1.649-6.355a10.02 10.02 0 0 0 7.133.012c2.103-.764 2.905-2.103 2.905-3.45 0-1.42-.665-2.15-4.565-2.397-4.507-.267-6.068-2.492-6.068-5.782 0-3.985 3.026-8.985 8.984-11.183a11.9 11.9 0 0 1 7.148-.527l-1.496 6.244a8.9 8.9 0 0 0-5.648-.16c-2.157.79-3.03 2.19-3.03 3.309 0 1.794 1.282 1.916 4.488 2.198 4.786.397 6.22 2.351 6.22 5.855-.003 4.362-2.973 9.602-9.102 11.87M45.234 158.809c-3.782.984-6.331 5.106-6.331 9.9 0 4.77 2.55 7.614 6.331 6.625 3.786-.984 6.324-5.144 6.324-9.915 0-4.786-2.538-7.595-6.324-6.61m-.099 22.037c-7.4 1.935-12.121-2.779-12.121-10.607 0-7.85 4.954-15.075 12.354-17.003 7.362-1.908 12.118 2.79 12.118 10.633 0 7.832-4.981 15.053-12.35 16.977M69.367 174.77c-6.1 1.083-9.488-2.119-9.488-9.427v-15.27l5.247-1.1v14.942c0 3.763 1.355 5.778 4.363 5.244 2.965-.557 4.324-3.076 4.324-6.862v-14.973l7.282-1.114-2.03 2.412v13.129c-.004 7.45-3.622 11.954-9.698 13.018M103.807 143.615l.127 25.815-16.427-12.953 2.484 3.641-.103 10.095-6.072.717-.011-25.941 14.003 11.636.084-12.53zM117.18 162.934c3.28.122 4.07-1.885 4.07-3.782v-6.908c0-5.183-3.378-3.977-6.516-4.18v14.992zm9.134-11.98v8.301c0 6.763-5.24 9.106-8.003 9.041-5.069.168-9.004.203-9.004.203l.035-22.613-2.218-2.497s6.347-.412 11.958-.477c3.503.168 7.232 1.493 7.232 8.042M146.988 143.805l.031 5.244-9.816-.583-.061 4.885 8.369.736-2.809 4.256-5.53-.492.015 5.343 9.885.801.05 5.111-15.667-.916-.115-12.931-2.912-2.679 2.909.286.049-9.889zM164.743 171.003l-4.442-10.019-2.653-.397v9.545l-5.53-.637v-22.51l-2.737-2.973 13.069 1.412a8.94 8.94 0 0 1 7.701 9.224 6 6 0 0 1-4.198 6.141l5.279 11.332zm-3.179-20.396-3.912-.565v5.648l4.076.611.722.038a2.125 2.125 0 0 0 2.167-2.35 3.405 3.405 0 0 0-3.057-3.382l.08-.397M181.04 174.441a20.2 20.2 0 0 1-8.335-4.228l1.47-5.038a15.24 15.24 0 0 0 6.938 3.82c2.011.397 2.759-.416 2.736-1.683-.023-1.32-.656-2.343-4.45-4.649-4.37-2.668-5.935-5.56-5.984-8.621-.061-3.733 2.793-6.76 8.541-5.622a16.4 16.4 0 0 1 6.912 3.328l-1.355 5.003a13.8 13.8 0 0 0-5.465-3.156c-2.096-.408-2.916.439-2.886 1.48.03 1.661 1.283 2.466 4.39 4.436 4.637 2.927 6.053 5.473 6.114 8.755.08 4.05-2.714 7.347-8.626 6.175M201.15 164.041v-11.175l15.58 4.168v5.633l-9.878-2.637v5.53l8.541 2.279-2.832 3.84-5.71-1.516v10.694l-5.701-1.519v-12.873l-2.863-3.206zm0 2.332-2.645-2.98M229.748 189.933c-7.878-2.885-13.225-10.599-13.225-18.38 0-7.817 5.343-11.638 13.225-8.756a21 21 0 0 1 7.553 5.038l-1.714 4.534a17.1 17.1 0 0 0-5.778-3.847c-4.52-1.653-7.32.343-7.32 5.213a10.94 10.94 0 0 0 7.32 10.542 9.88 9.88 0 0 0 6.045.282l1.676 5.778a12.38 12.38 0 0 1-7.782-.404"/></g></svg>